Patient4_TMGait_0pt5_02_left_38_EMG.mot
version=1
nRows=20
nColumns=33
inDegrees=no
endheader
time	1LAddLong	2LGlutMax	3LGlutMed	4LIliopsoas	5LSemiMemb	6LBicFemLong	7LRecFem	8LVastMed	9LVastLat	10LGasMed	11LTibAnt	12lTibPost	13LPeroneusLong	14LSol	15LExtDigLong	16LFlexDigLong	17RAddLong	18RGlutMax	19RGlutMed	20RIliopsoas	21RSemiMemb	22RBicFemLong	23RRecFem	24RVastMed	25RVastLat	26RGasMed	27RTibAnt	28RTibPost	29RPeroneusLong	30RSol	31RExtDigLong	32RFlexDigLong
49.412	0.021057	0.79315	-0.13611	-0.009155	-0.046692	0.009918	0.076752	0.004272	0.062103	-0.035858	-0.005188	0.025024	-0.043793	0.2002	0.059204	0.032043	-0.006866	-0.14282	0.15732	-0.07309	-0.050659	0.22064	0.35461	-0.088959	0.048981	-0.032196	0.016022	-0.23666	-0.24506	0.68832	-0.002594	-0.006561
49.413	0.024567	0.77393	-0.17044	0.02243	-0.063171	-0.015106	-0.000153	0.00351	0.022583	-0.015411	0.001221	0.021515	0.085754	0.000305	0.014954	0.010071	-0.018005	-0.13916	0.15854	-0.045929	-0.045319	0.22644	0.36774	-0.052185	0.047302	-0.04364	0.030975	-0.36224	-0.01358	0.83496	-0.00061	-0.010986
49.414	0.026703	0.74036	-0.10986	0.01358	-0.022583	-0.043945	-0.089111	0.006561	0.014038	-0.010071	-0.010071	0.020294	0.38238	-0.27908	0.002289	0.012512	-0.015106	-0.16541	0.20096	-0.051575	-0.03067	0.21652	0.34164	-0.086517	0.051422	-0.009613	0.051727	0.1593	-0.12497	0.56732	-0.003052	-0.004272
49.415	0.02594	0.62622	-0.027313	0.02533	0.071411	-0.061188	-0.11658	0.005493	0.007629	-0.013428	-0.019989	0.021667	0.44052	-0.22873	0.029144	0.025177	-0.026093	-0.18158	0.14313	-0.045624	-0.041504	0.24216	0.28473	-0.06424	0.052948	0.012512	0.057983	0.19257	0.10529	0.15366	-0.003357	-0.006561
49.416	0.017853	0.62393	0.016632	0.020752	0.028381	-0.094757	-0.092316	0.009766	-0.012665	-0.002747	0.001068	0.013733	0.048065	-0.10773	0.031128	0.002899	-0.023651	-0.22614	0.12726	-0.021667	-0.045776	0.23895	0.25833	-0.036621	0.061646	0.032043	0.034332	0.36804	0.47241	-0.84686	0.00885	-0.016022
49.417	0.033264	0.58594	0.018311	0.019073	0.049744	-0.10452	-0.12466	0.001221	-0.029144	-0.011902	0.00885	0.018768	-0.16327	-0.052948	0.026245	0.011139	-0.030975	-0.26749	0.15564	-0.012512	-0.041656	0.24948	0.21118	-0.036469	0.046997	0.023651	-0.00824	-0.2269	0.29343	-0.96374	-0.00061	-0.00412
49.418	0.057526	0.56427	-0.010529	0.029297	0.050812	-0.02121	-0.18188	-0.00824	-0.032654	-0.030365	0.008392	0.002136	0.065002	0.075378	0.054626	0.015564	-0.00946	-0.29923	0.12955	-0.12436	-0.046234	0.27618	0.15366	-0.039673	0.06546	-0.012817	-0.012512	-0.20783	-0.048676	-0.11902	-0.000458	0.000763
49.419	0.026703	0.53451	0.0383	0.007782	0.024567	-0.24887	-0.20615	-0.008087	-0.032196	-0.028381	0.009155	0.004272	0.28153	0.112	0.037231	0.018158	-0.006409	-0.36896	0.13412	-0.16769	-0.044403	0.25497	0.18387	-0.040283	0.052948	-0.011902	0.016327	0.098724	-0.21164	0.22186	0.001526	-0.003967
49.42	0.001678	0.46921	0.036621	-0.015411	0.049438	-0.34988	-0.26062	0.001221	-0.03418	0.000153	0.021973	-0.001221	0.36148	0.095673	0.021362	0.013123	0.015411	-0.33157	0.14389	-0.07019	-0.054626	0.24811	0.22598	-0.069885	0.058899	-0.016632	0.034943	0.19943	-0.19699	0.30762	0.009308	-0.001526
49.421	0.034027	0.44235	0.068207	-0.026703	0.059204	-0.23102	-0.32105	0.003967	-0.04303	-0.012207	-0.006256	0.001984	-0.31769	0.17105	0.024719	0.004883	0.013885	-0.32318	0.17395	0.070038	-0.063782	0.25772	0.23636	-0.071716	0.050964	-0.046539	0.072937	-0.17731	-0.055695	0.8197	-0.001373	0.002136
49.422	0.002289	0.40512	0.088654	-0.007477	0.063782	0.10056	-0.34409	0.005798	-0.045319	-0.069733	-0.029449	0.002289	-0.20615	0.20325	0.035095	0.013885	0.018311	-0.32455	0.12985	0.15381	-0.075378	0.24323	0.21149	-0.11673	0.047455	-0.086365	0.10529	-0.25467	0.19928	0.70999	0.002289	-0.011292
49.423	0.030518	0.40024	0.056915	-0.007019	0.039368	0.28839	-0.39917	0.019684	-0.039978	-0.087891	-0.047913	-0.001068	0.018311	0.065155	-0.043335	-0.00824	0.023499	-0.3537	0.063019	0.065765	-0.070038	0.24857	0.21896	-0.1268	0.046997	-0.066223	0.048065	-0.37338	0.33752	0.45334	-0.001526	-0.011444
49.424	0.024414	0.383	0.092316	0.005646	0.015106	0.15961	-0.39505	0.018768	-0.039063	-0.003662	-0.002136	-0.003204	-0.12482	-0.2124	-0.159	-0.003204	0.03067	-0.3772	0.016632	0.037537	-0.082703	0.22751	0.24185	-0.13458	0.050354	-0.050964	0.044861	0.14908	0.12054	0.31494	0.005341	-0.009918
49.425	0.021973	0.29602	0.077515	0.015869	-0.025482	0.089417	-0.39032	0.020752	-0.029297	0.057373	0.021362	0.001831	-0.28931	-0.2269	-0.072174	-0.007782	0.021667	-0.35675	0.018005	0.043335	-0.092926	0.21362	0.25543	-0.15991	0.032196	-0.016327	0.029602	0.42694	0.10834	0.11063	-0.000916	-0.001984
49.426	0.012207	0.20889	-0.012665	-0.000305	-0.067902	0.08728	-0.38925	0.030975	-0.009155	0.050659	0.019989	0.007782	0.086212	-0.21072	0.047913	-0.011597	0.031433	-0.44113	0.014496	0.15518	-0.089722	0.21744	0.23605	-0.14145	0.045013	0.017242	-0.011444	0.30167	0.25192	-0.43655	0.000916	0.005646
49.427	0.008698	0.26154	0.02594	0.007019	-0.026093	0.083008	-0.32776	0.03891	0.097504	0.038757	0.002136	0.010681	0.62958	-0.35446	0.092163	-0.015564	0.019836	-0.47699	-0.032196	0.35461	-0.08606	0.23285	0.22842	-0.13153	0.036926	0.038757	-0.001831	0.26657	0.41794	-0.51148	0.001526	-0.007172
49.428	-0.000305	0.22263	0.11429	0.026093	0.022278	-0.027313	-0.30167	0.033722	0.24262	0.027924	0.000153	0.010071	0.23392	-0.36285	0.09903	-0.014191	0.016174	-0.49728	0.002594	0.47028	-0.085449	0.24414	0.1831	-0.11337	0.046234	0.020142	0.059967	0.11032	0.025024	0.077667	-0.002441	-0.014343
49.429	-0.004883	0.064392	-0.006256	0.015564	0.023346	0.058136	-0.28946	0.02243	0.26352	0.019073	0.007782	0.009003	-0.096741	-0.18814	-0.011597	-0.023499	-0.005035	-0.51056	0.012665	0.44144	-0.069733	0.23514	0.18738	-0.069122	0.046692	0.002441	0.068665	-0.014343	0.033264	0.20813	0.002899	-0.019531
49.43	-0.005798	-0.002899	-0.13275	0.010681	-0.010681	0.14755	-0.33218	0.021973	0.12756	0.008545	0.014648	0.003662	0.11612	-0.037537	-0.055542	-0.020752	-0.021667	-0.39352	-0.032959	0.22003	-0.067596	0.25955	0.16052	-0.05661	0.055542	-0.010986	0.045776	-0.084991	0.13977	0.28915	0.00061	-0.004578
49.431	-0.001831	-0.10849	-0.20676	0.014191	-0.031433	0.27313	-0.28915	-0.005798	-0.023956	-0.010681	0.012512	0.007782	0.12924	0.021362	-0.002136	-0.014343	-0.016022	-0.41306	-0.11261	0.016785	-0.062408	0.25955	0.14481	-0.035858	0.060425	0.005951	0.011292	-0.20065	0.054779	0.24612	0.000153	-0.009613
